PathFileType	4	(X/Y/Z)	D:\TRACE\v60_Jaco2_6-2-23\JustArmDRS_Motion3_5-v60.trc
DataRate	CameraRate	NumFrames	NumMarkers	Units	OrigDataRate	OrigDataStartFrame	OrigNumFrames
100.00	100.00	      28	9	mm	100.00	3501	      7000
Frame#	Time	front left toe			Front right toe			aft left toe			aft right toe			Arm			FL body			FR body			AL Body			AR Body			
		X1	Y1	Z1	X2	Y2	Z2	X3	Y3	Z3	X4	Y4	Z4	X5	Y5	Z5	X6	Y6	Z6	X7	Y7	Z7	X8	Y8	Z8	X9	Y9	Z9	

3501	35.000	-138.40997	10.95312	-238.84297	259.74405	12.26529	-174.33705	-228.02678	28.46935	399.27255	182.25424	26.48097	414.00516	72.64179	1077.93152	-665.92755	-5.44834	579.49445	-353.06827	151.47037	579.87823	-332.28064	-120.64013	593.39233	584.27380	28.93056	585.34833	604.05145	
3502	35.010	-138.36632	10.88192	-238.84004	259.77603	12.18634	-174.38123	-228.07494	28.52454	399.22928	182.24261	26.51295	413.94711	72.88615	1077.73633	-666.09070	-5.44857	579.48444	-353.17606	151.49013	579.76178	-332.30988	-120.60058	593.38910	584.22980	28.96719	585.51288	603.93567	
3503	35.020	-138.36865	10.85232	-238.82770	259.75864	12.13205	-174.36163	-228.05859	28.54369	399.20615	182.20680	26.55205	413.91635	73.06705	1077.60693	-666.26978	-5.40919	579.43164	-353.28290	151.65337	579.71802	-332.37225	-120.49275	593.40356	584.19397	29.12102	585.58832	603.84326	
3504	35.030	-138.34195	10.83375	-238.82881	259.74414	12.11251	-174.38655	-228.01917	28.61109	399.19608	182.20258	26.61017	413.90152	73.14545	1077.58887	-666.38727	-5.36531	579.36993	-353.32162	151.74681	579.67792	-332.46191	-120.41396	593.48694	584.19629	29.22284	585.66724	603.71118	
3505	35.040	-138.32881	10.83243	-238.86166	259.72742	12.09445	-174.41768	-228.02138	28.68396	399.17105	182.22542	26.66633	413.87357	73.26436	1077.51953	-666.43573	-5.22053	579.30627	-353.36087	151.81749	579.62738	-332.51636	-120.32876	593.54254	584.16559	29.38940	585.67902	603.60675	
3506	35.050	-138.29144	10.81484	-238.84326	259.75162	12.07496	-174.43822	-227.84787	28.82009	398.97543	182.26093	26.75721	413.84277	73.29845	1077.48938	-666.50342	-5.09199	579.25336	-353.40982	151.89432	579.60999	-332.53473	-120.33703	593.56256	584.14215	29.71392	585.40039	603.61322	
3507	35.060	-138.27818	10.77604	-238.85411	259.76190	12.02736	-174.42125	-228.04706	28.74121	399.12137	182.28099	26.72690	413.85162	73.39933	1077.45947	-666.53882	-5.10602	579.22363	-353.44513	151.92462	579.58875	-332.56119	-120.31621	593.55603	584.10620	29.78131	585.38599	603.60608	
3508	35.070	-138.28436	10.77672	-238.85954	259.76102	12.05215	-174.41695	-228.04758	28.71236	399.12430	182.21187	26.65575	413.79184	73.40518	1077.44836	-666.54370	-4.99091	579.20874	-353.44693	152.01561	579.59009	-332.58609	-120.33813	593.56976	584.09064	29.75253	585.38702	603.57208	
3509	35.080	-138.27477	10.71670	-238.82820	259.73480	11.96593	-174.41725	-228.01733	28.75002	399.13705	182.24034	26.62418	413.86035	73.54844	1077.38989	-666.54761	-4.89542	579.16992	-353.45395	152.05426	579.51630	-332.57053	-120.31217	593.54041	584.09717	29.77846	585.39063	603.58527	
3510	35.090	-138.21907	10.70785	-238.80707	259.75873	12.01916	-174.40016	-227.83189	28.87093	398.96133	182.21123	26.58005	413.82028	73.60674	1077.40393	-666.54187	-4.84631	579.18671	-353.43735	152.07158	579.51544	-332.56860	-120.29287	593.53809	584.08667	29.83483	585.38538	603.54901	
3511	35.100	-138.22858	10.75953	-238.81190	259.75513	12.04320	-174.40584	-228.00291	28.68774	399.16708	182.25735	26.56019	413.85703	73.74402	1077.44507	-666.50348	-4.83118	579.19379	-353.44992	152.13486	579.53357	-332.55185	-120.27153	593.55914	584.08704	29.60195	585.64618	603.43402	
3512	35.110	-138.19220	10.73048	-238.81342	259.84460	12.08136	-174.37993	-228.02873	28.71924	399.10281	182.24783	26.54986	413.85953	73.83485	1077.44006	-666.47809	-4.79358	579.19769	-353.42664	152.15891	579.51636	-332.49451	-120.26862	593.53131	584.11072	29.60823	585.61584	603.44305	
3513	35.120	-138.23961	10.75434	-238.81429	259.79059	12.11884	-174.37762	-228.02533	28.61278	399.15561	182.25931	26.49411	413.93372	74.02921	1077.46216	-666.38513	-4.78851	579.22504	-353.39462	152.13011	579.54163	-332.49258	-120.26292	593.51495	584.12073	29.60247	585.58826	603.51837	
3514	35.130	-138.25717	10.74669	-238.77661	259.75418	12.10261	-174.39935	-228.00768	28.54639	399.18857	182.22171	26.38809	413.96051	74.01694	1077.53723	-666.35687	-4.77252	579.24072	-353.34250	152.19380	579.55573	-332.41165	-120.25224	593.47235	584.14185	29.61093	585.55969	603.58362	
3515	35.140	-138.22676	10.80082	-238.76347	259.86591	12.25960	-174.31436	-228.03882	28.51309	399.19962	182.28371	26.36271	414.05261	74.12229	1077.60425	-666.21619	-4.70925	579.26453	-353.27176	152.18721	579.56067	-332.37146	-120.20141	593.40308	584.15454	30.01837	585.08350	603.79779	
3516	35.150	-138.20544	10.84154	-238.72830	259.83417	12.26194	-174.31560	-227.99991	28.45309	399.24496	182.29222	26.31108	414.11319	74.14680	1077.68665	-666.12390	-4.70494	579.35437	-353.19595	152.23233	579.61517	-332.32407	-120.17065	593.33868	584.18988	29.98643	585.00891	603.88971	
3517	35.160	-138.20180	10.87205	-238.68864	259.80051	12.32712	-174.32178	-227.96895	28.36679	399.31955	182.31879	26.24823	414.16870	74.13013	1077.79443	-665.93097	-4.67034	579.43835	-353.12057	152.15515	579.69855	-332.29932	-120.10583	593.22729	584.20618	29.96719	584.88184	603.97302	
3518	35.170	-138.22745	10.93307	-238.62372	259.81943	12.42433	-174.18459	-227.94682	28.24529	399.41614	182.31245	26.14419	414.16092	74.10509	1077.98108	-665.74359	-4.60673	579.50500	-353.02792	152.18983	579.77106	-332.22827	-120.07479	593.10956	584.23328	29.91244	584.73901	604.05847	
3519	35.180	-138.24496	11.08979	-238.58829	259.89847	12.52745	-174.10281	-227.92899	28.14272	399.55997	182.32655	26.12768	414.21930	74.03439	1078.08826	-665.52301	-4.60698	579.60205	-352.91656	152.22379	579.84833	-332.07928	-120.08622	592.98669	584.32568	29.85471	584.50739	604.10895	
3520	35.190	-138.23277	11.14345	-238.50816	259.88297	12.62541	-173.99388	-227.94748	28.07848	399.55927	182.26479	26.05095	414.22342	73.94617	1078.31335	-665.18127	-4.37198	579.47443	-352.50876	152.26048	579.93427	-331.90933	-120.09484	592.82507	584.43768	29.84354	584.31458	604.22021	
3521	35.200	-138.16985	11.22305	-238.43823	260.04550	12.86661	-173.86266	-228.09392	28.14788	399.32251	182.20531	25.95917	414.27820	74.01805	1078.53613	-664.86896	-4.43724	579.69153	-352.49744	152.33824	580.05695	-331.81613	-120.09633	592.63300	584.53064	29.83969	584.19672	604.33789	
3522	35.210	-138.13809	11.37059	-238.37056	260.04694	12.96725	-173.72687	-228.14853	28.04168	399.28973	182.12704	25.85746	414.34149	74.09953	1078.79443	-664.64594	-4.43960	579.77545	-352.41653	152.39169	580.14679	-331.70081	-120.10151	592.41547	584.63965	29.78333	584.06329	604.51953	
3523	35.220	-137.57208	10.86709	-238.65300	260.13516	13.11857	-173.62598	-227.99173	27.80528	399.71051	182.11386	25.77633	414.43320	73.97109	1079.04260	-664.39014	-4.42578	579.86255	-352.29813	152.39682	580.27722	-331.57114	-120.05056	592.20270	584.95807	29.74250	583.99091	604.56549	
3524	35.230	-137.52571	10.94074	-238.55721	260.18024	13.25186	-173.44061	-227.98959	27.68368	399.74988	182.05188	25.56624	414.53311	73.91450	1079.19250	-664.20117	-4.47290	580.05042	-352.15231	152.52750	580.36780	-331.39865	-120.04303	592.12201	585.23718	29.76235	583.77368	604.70319	
3525	35.240	-137.47737	11.03012	-238.47867	260.14606	13.28141	-173.36488	-228.03374	27.51571	399.78607	182.02466	25.35436	414.55768	73.82313	1079.39063	-663.95020	-4.52700	580.25934	-352.03348	152.57718	580.41663	-331.22980	-120.01124	592.02264	585.46643	29.90665	583.54175	604.96259	
3526	35.250	-137.44785	11.14243	-238.38849	260.14966	13.33709	-173.24155	-228.10585	27.35382	399.81143	182.16312	25.04507	414.69409	73.89144	1079.73218	-663.43158	-4.83727	580.64362	-352.12491	152.60155	580.54443	-331.00018	-120.20642	591.96478	585.78369	29.87779	583.43256	605.21960	
3527	35.260	-138.21223	11.93653	-237.96648	260.10361	13.41268	-173.05421	-227.91495	27.08276	399.81360	182.16512	24.72966	414.79065	74.01026	1080.00305	-662.87408	-4.78342	580.77582	-351.81519	152.99431	580.73633	-330.99170	-120.10632	591.68713	585.99915	30.03615	583.23419	605.33575	
3528	35.270	-138.96872	13.10972	-238.28082	259.81808	13.32407	-172.89319	-227.94516	26.83684	399.88107	182.04457	24.37839	414.93875	74.11620	1080.30286	-662.48767	-4.77039	580.81238	-351.55576	152.97450	580.87262	-330.67511	-120.01479	591.48450	586.12573	30.17404	583.02795	605.44214	
